<svg width="32" height="32" viewBox="0 0 32 32" fill="none" xmlns="http://www.w3.org/2000/svg">
<path d="M23.5833 19.031C22.3792 22.0386 19.4377 24.163 16 24.163C12.5623 24.163 9.6208 22.0386 8.41667 19.031L3 21.1977C5.06422 26.3536 10.1068 29.9954 16 29.9954C21.8932 29.9954 26.9358 26.3536 29 21.1977L23.5833 19.031Z" fill="#333333"/>
<path d="M23.5833 12.9644C22.3792 9.95678 19.4377 7.83238 16 7.83238C12.5623 7.83238 9.6208 9.95678 8.41667 12.9644L3 10.7977C5.06422 5.64183 10.1068 2 16 2C21.8932 2 26.9358 5.64183 29 10.7977L23.5833 12.9644Z" fill="#333333"/>
<path d="M18.8962 16.091C18.8962 17.6887 17.601 18.9839 16.0033 18.9839C14.4056 18.9839 13.1104 17.6887 13.1104 16.091C13.1104 14.4933 14.4056 13.1982 16.0033 13.1982C17.601 13.1982 18.8962 14.4933 18.8962 16.091Z" fill="#333333"/>
</svg>
